<?xml version="1.0" standalone="no"?>
<!DOCTYPE svg PUBLIC "-//W3C//DTD SVG 20010904//EN"
 "http://www.w3.org/TR/2001/REC-SVG-20010904/DTD/svg10.dtd">
<svg version="1.0" xmlns="http://www.w3.org/2000/svg"
 width="260.000000pt" height="260.000000pt" viewBox="0 0 260.000000 260.000000"
 preserveAspectRatio="xMidYMid meet">
<metadata>
Created by potrace 1.14, written by Peter Selinger 2001-2017
</metadata>
<g transform="translate(0.000000,260.000000) scale(0.100000,-0.100000)"
fill="#000000" stroke="none">
<path d="M1059 2444 c-1 -5 -1 -12 0 -16 2 -13 -27 -9 -33 5 -3 6 -3 2 -1 -10
3 -12 1 -24 -5 -28 -6 -4 -9 -1 -8 5 2 7 -5 14 -15 15 -9 2 -15 -1 -12 -5 3
-5 1 -11 -5 -15 -5 -3 -10 -1 -10 5 0 7 -7 5 -16 -4 -14 -14 -34 -14 -34 0 0
3 4 3 9 -1 5 -3 12 -1 15 4 11 16 -26 5 -39 -12 -7 -9 -24 -18 -39 -19 -23 -2
-30 -9 -27 -30 0 -4 -11 -4 -25 -2 -22 4 -25 2 -20 -13 6 -15 5 -15 -14 2 -11
10 -23 15 -27 12 -3 -4 -1 -7 5 -7 7 0 12 -5 12 -11 0 -5 -4 -7 -10 -4 -9 5
-14 -6 -12 -26 1 -3 -6 -6 -13 -6 -11 0 -12 4 -3 14 8 11 7 12 -6 7 -11 -4
-16 -14 -13 -25 4 -16 2 -17 -15 -8 -16 9 -19 8 -13 -2 6 -9 3 -10 -10 -5 -14
5 -16 4 -6 -8 9 -11 6 -13 -19 -11 -16 1 -27 -1 -24 -6 3 -5 0 -9 -5 -9 -6 0
-11 -5 -11 -12 0 -6 9 -3 20 7 25 23 26 11 1 -14 -11 -11 -23 -15 -28 -10 -5
5 -17 3 -29 -6 -14 -11 -15 -14 -3 -9 10 3 20 0 24 -6 3 -6 3 -10 -2 -9 -20 3
-34 -2 -28 -11 3 -5 -1 -10 -10 -10 -10 0 -13 5 -9 12 4 7 3 8 -5 4 -9 -6 -9
-11 0 -22 10 -12 9 -13 -5 -8 -12 5 -19 0 -23 -15 -5 -18 -8 -19 -21 -9 -10 8
-13 9 -9 1 9 -14 -1 -43 -15 -43 -5 0 -7 4 -3 9 3 5 1 12 -4 15 -4 3 -8 -2 -8
-12 0 -36 -3 -43 -15 -36 -8 5 -7 0 2 -11 12 -15 12 -17 1 -10 -11 6 -13 4 -8
-8 4 -11 1 -15 -13 -12 -11 2 -23 -1 -26 -7 -4 -7 -2 -8 4 -4 7 4 12 1 12 -9
0 -11 -5 -15 -15 -11 -13 5 -14 2 -4 -17 l12 -22 -23 20 c-13 11 -21 15 -17 9
14 -24 15 -61 1 -61 -9 0 -11 4 -4 12 7 8 5 12 -5 12 -7 0 -14 -3 -13 -6 0 -3
0 -8 -2 -11 -9 -24 -8 -50 3 -50 6 0 4 -5 -6 -11 -9 -6 -14 -15 -11 -21 4 -7
2 -8 -5 -4 -8 6 -9 12 -2 20 8 9 7 13 -3 13 -8 0 -12 -10 -11 -26 1 -14 -7
-36 -18 -48 -17 -20 -18 -25 -6 -40 9 -11 10 -14 2 -9 -9 5 -13 -1 -14 -21 -1
-15 -1 -31 0 -35 0 -5 -6 -8 -14 -8 -9 0 -12 -6 -8 -17 4 -10 2 -14 -4 -10
-15 9 -23 -26 -10 -48 6 -12 6 -16 -1 -11 -6 3 -13 2 -17 -4 -3 -5 -2 -10 3
-10 5 0 9 -7 9 -15 0 -11 -4 -12 -14 -3 -11 9 -12 7 -7 -7 5 -12 4 -16 -3 -12
-7 4 -10 1 -9 -8 1 -9 6 -14 12 -13 5 2 8 6 7 10 -2 5 2 8 7 8 13 0 13 -17 -1
-25 -6 -4 -8 -13 -5 -21 3 -8 1 -14 -3 -14 -5 0 -11 6 -14 13 -2 6 -4 -1 -4
-16 0 -22 3 -27 16 -23 13 5 13 4 -2 -8 -15 -11 -17 -32 -17 -165 0 -119 3
-151 13 -145 9 6 9 4 1 -7 -16 -20 -14 -52 2 -38 9 8 11 5 7 -10 -3 -12 -10
-21 -15 -21 -5 0 -6 -5 -2 -11 4 -8 12 -3 20 12 l14 24 -4 -27 c-3 -15 -7 -32
-10 -37 -4 -5 -2 -12 3 -16 5 -3 10 -14 10 -25 1 -11 1 -29 2 -41 0 -16 5 -20
20 -16 19 5 20 4 5 -12 -16 -18 -12 -31 8 -31 6 0 4 5 -4 10 -9 6 -10 10 -3
10 17 0 23 -14 13 -30 -9 -15 -2 -42 10 -35 4 2 13 -8 19 -23 12 -26 12 -26
-6 -9 -16 14 -20 14 -20 2 0 -8 4 -12 9 -9 5 3 13 -8 19 -25 6 -17 15 -28 20
-25 5 3 9 -4 9 -15 0 -12 5 -21 10 -21 6 0 10 -9 10 -21 0 -11 4 -17 10 -14 6
3 10 1 10 -5 0 -6 5 -8 12 -4 7 5 8 3 3 -5 -4 -7 -16 -11 -26 -8 -11 3 -16 1
-13 -5 4 -5 17 -8 31 -5 13 2 21 2 18 -1 -2 -3 1 -12 8 -21 11 -14 10 -14 -6
-2 -15 12 -17 12 -12 -2 4 -8 14 -17 24 -20 10 -2 18 -12 19 -21 1 -9 3 -22 4
-30 1 -8 9 -11 21 -8 17 4 19 1 14 -17 -5 -19 -3 -20 11 -9 13 11 15 10 10 -9
-3 -12 -3 -22 1 -21 16 3 41 -16 41 -31 0 -14 2 -14 10 -1 8 13 10 12 10 -2 0
-10 -5 -18 -12 -18 -6 0 -9 -3 -6 -6 4 -3 15 -1 25 5 15 8 20 7 20 -4 0 -8 -4
-12 -8 -9 -4 2 -11 0 -14 -6 -4 -6 -3 -10 2 -9 20 3 34 -2 28 -11 -3 -6 1 -7
9 -4 11 4 16 0 16 -12 0 -16 2 -17 10 -4 9 13 14 11 35 -13 14 -16 23 -32 21
-36 -3 -4 1 -8 9 -8 8 0 14 3 13 6 -2 20 4 22 21 7 11 -10 17 -24 15 -31 -5
-12 24 -30 34 -20 3 3 0 5 -6 5 -7 0 -12 5 -12 11 0 8 5 7 15 -1 9 -7 14 -18
11 -25 -2 -6 2 -12 10 -12 7 0 11 5 7 10 -3 5 2 5 13 -1 11 -5 24 -8 30 -5 6
2 17 -4 25 -14 8 -9 9 -14 3 -10 -6 3 -11 0 -11 -8 0 -11 5 -12 20 -3 16 8 19
7 14 -4 -3 -9 1 -15 9 -15 8 0 13 6 10 13 -3 8 0 11 9 7 8 -3 12 -9 9 -14 -3
-5 6 -9 20 -9 14 0 26 -5 26 -11 0 -8 5 -7 15 1 9 7 18 10 22 6 3 -3 0 -6 -7
-6 -9 0 -7 -5 5 -14 21 -15 49 -10 39 6 -4 6 3 5 15 -1 11 -7 21 -14 21 -17 0
-3 -4 -3 -8 0 -4 2 -13 1 -20 -3 -6 -4 56 -8 139 -10 113 -2 154 1 167 11 12
9 14 10 8 1 -4 -7 -2 -13 3 -13 6 0 11 6 11 13 0 9 3 8 9 -2 7 -11 11 -10 21
5 10 16 11 16 6 1 -3 -9 -1 -17 4 -17 9 0 14 13 12 31 -1 3 19 4 44 2 36 -4
44 -1 44 12 0 15 1 15 16 1 8 -9 21 -16 27 -16 7 0 6 4 -3 10 -13 8 -13 11 -1
22 10 10 12 10 7 1 -4 -7 -3 -13 2 -13 6 0 13 7 16 16 6 15 9 15 29 -2 15 -13
18 -14 9 -3 -10 14 -10 18 4 23 23 9 36 7 29 -4 -3 -5 -2 -10 3 -10 6 0 13 7
16 16 3 8 10 13 15 9 5 -3 17 5 25 17 15 21 18 21 39 9 20 -13 21 -13 8 3 -12
15 -12 19 4 34 13 12 15 12 8 2 -10 -13 -8 -16 7 -16 11 0 17 6 15 16 -2 9 7
22 18 30 20 12 21 12 9 -3 -10 -12 -10 -17 -1 -23 7 -4 9 -3 6 3 -4 6 -1 16 7
22 11 9 15 9 20 -1 3 -7 3 1 0 17 -4 23 -3 27 5 15 8 -12 11 -12 11 -1 0 11 3
11 15 1 13 -11 14 -10 9 4 -3 9 -11 16 -17 16 -6 0 -7 3 -4 6 4 4 14 1 24 -7
15 -12 16 -12 10 4 -5 14 -2 16 18 13 14 -3 23 -1 20 4 -3 5 3 14 12 20 17 11
17 11 1 6 -10 -3 -18 -1 -18 4 0 6 5 10 11 10 5 0 7 5 3 11 -4 8 -1 8 13 1 15
-9 20 -8 21 4 1 7 3 21 4 29 1 11 5 12 14 4 10 -8 12 -6 9 10 -2 11 1 24 7 27
7 4 8 2 4 -4 -11 -18 3 -14 22 5 17 17 18 20 21 51 1 15 3 15 11 2 8 -13 10
-12 11 5 1 11 1 25 0 30 -1 6 6 1 14 -9 17 -22 20 -14 5 14 -7 13 -7 21 0 25
6 4 7 11 4 17 -5 7 -2 8 5 4 17 -11 51 22 44 42 -5 11 -3 13 8 7 12 -7 12 -6
1 7 -9 11 -10 18 -2 23 6 3 8 10 5 15 -3 4 2 10 10 13 8 4 12 15 10 29 -4 23
-4 23 12 3 14 -18 15 -18 9 -1 -5 14 -2 17 11 12 17 -6 17 -5 1 8 -20 15 -25
31 -6 20 8 -5 9 -2 5 10 -6 14 -3 17 9 12 14 -5 15 -4 4 9 -10 12 -10 15 1 15
11 0 11 2 -1 10 -13 8 -13 10 2 10 12 0 15 5 11 17 -4 10 -2 14 5 9 7 -4 9 2
6 20 -3 19 -1 24 8 18 10 -6 10 -5 1 7 -7 9 -8 20 -3 28 4 8 6 20 3 27 -2 6 1
15 8 20 8 4 10 3 5 -4 -5 -8 -1 -10 10 -5 11 4 13 8 6 11 -8 2 -9 9 -3 20 5 9
9 100 10 200 2 142 -1 182 -10 176 -8 -5 -9 -3 -3 7 10 16 14 68 5 67 -20 -2
-31 3 -26 12 3 6 1 10 -6 10 -6 0 -1 9 12 21 22 18 22 19 2 10 -19 -9 -20 -8
-15 11 4 16 2 19 -9 13 -12 -8 -12 -6 0 8 7 9 9 17 5 17 -5 0 -15 9 -22 21 -8
12 -9 18 -3 14 6 -3 11 1 11 9 0 10 -6 13 -17 9 -15 -5 -14 -3 2 10 19 16 19
16 1 17 -15 0 -16 3 -6 15 11 13 10 14 -6 8 -16 -5 -17 -4 -7 8 9 11 8 18 -1
31 -7 10 -17 14 -22 10 -4 -4 -2 2 6 12 13 18 13 19 -1 14 -12 -5 -15 -1 -11
17 3 17 -2 25 -17 30 -12 3 -21 11 -21 16 0 6 5 7 10 4 6 -3 10 -1 10 4 0 6
-10 11 -22 12 -22 0 -22 1 -3 9 19 8 19 9 1 9 -13 1 -17 6 -13 20 4 15 0 19
-15 16 -16 -4 -18 -2 -8 10 11 14 7 19 -12 16 -5 0 -8 6 -8 15 0 9 -5 12 -12
8 -8 -5 -7 0 2 11 9 11 10 16 3 11 -8 -4 -13 -2 -13 4 0 6 -5 8 -12 4 -8 -5
-7 0 2 11 9 11 10 16 3 11 -8 -4 -13 -2 -13 7 0 17 -27 30 -42 20 -6 -3 -9 -2
-6 3 7 10 -17 36 -25 28 -3 -3 -4 3 -3 13 0 11 -5 18 -16 17 -25 -2 -22 5 5
17 20 8 19 9 -6 4 -26 -5 -28 -4 -22 15 6 20 5 21 -15 10 -12 -6 -24 -9 -28
-6 -3 3 0 6 6 6 7 0 12 8 11 18 0 12 -2 13 -6 3 -4 -10 -10 -5 -20 15 -7 16
-11 21 -8 12 2 -10 1 -18 -4 -18 -9 0 -43 37 -60 65 -7 11 -10 13 -8 4 3 -9
-1 -16 -7 -16 -7 0 -12 10 -11 22 2 13 -3 22 -11 22 -10 0 -11 -4 -3 -13 7 -9
6 -14 -3 -20 -7 -4 -10 -4 -6 1 4 4 0 14 -8 22 -8 8 -12 19 -9 24 4 5 1 9 -4
9 -6 0 -11 -6 -11 -12 0 -7 -7 -2 -16 10 -8 12 -21 22 -28 22 -7 0 -23 9 -36
20 -20 17 -40 19 -40 4 0 -3 5 -2 12 2 7 4 8 3 4 -5 -4 -6 -4 -10 1 -9 4 1 22
-5 38 -15 18 -10 24 -16 14 -17 -9 0 -22 7 -29 15 -7 8 -16 13 -20 10 -5 -3
-11 -1 -15 5 -4 6 -11 8 -16 5 -5 -3 -6 0 -4 7 4 9 -2 14 -15 15 -12 1 -18 -3
-14 -8 3 -6 -3 -5 -15 3 -12 7 -21 18 -21 25 0 6 -9 11 -19 10 -11 0 -17 -5
-15 -9 3 -5 10 -5 16 -2 7 4 8 2 4 -4 -9 -15 -47 7 -39 23 4 5 3 7 -2 3 -4 -4
-15 -2 -24 5 -14 10 -14 10 -3 -5 10 -12 10 -18 1 -24 -8 -5 -9 -3 -4 6 5 9 2
10 -14 5 -16 -5 -21 -2 -21 12 0 15 2 16 10 3 6 -9 10 -10 10 -3 0 17 -17 25
-25 13 -5 -8 -12 -7 -23 2 -13 11 -15 10 -9 -4 4 -12 2 -15 -8 -11 -8 3 -13 8
-10 12 5 10 -42 8 -51 -2 -4 -3 -15 -2 -25 4 -14 7 -19 6 -19 -2 0 -8 -4 -8
-15 1 -12 10 -15 10 -15 0 0 -10 -4 -10 -16 1 -13 10 -17 10 -25 -2 -7 -12 -9
-12 -9 1 0 12 -2 12 -9 1 -6 -10 -10 -10 -16 -1 -5 8 -13 6 -28 -7 -11 -10
-17 -13 -14 -6 9 15 -9 27 -18 13 -5 -8 -11 -7 -21 1 -8 6 -15 8 -15 3z m19
-29 c-3 -3 -9 2 -12 12 -6 14 -5 15 5 6 7 -7 10 -15 7 -18z m25 10 c-3 -9 -8
-14 -10 -11 -3 3 -2 9 2 15 9 16 15 13 8 -4z m-179 -51 c3 -8 2 -12 -4 -9 -6
3 -10 10 -10 16 0 14 7 11 14 -7z m1114 -335 c-3 -8 -7 -3 -11 10 -4 17 -3 21
5 13 5 -5 8 -16 6 -23z m-750 -90 c-2 -6 3 -14 11 -17 9 -3 11 0 6 8 -6 9 -3
9 14 1 16 -9 21 -9 22 1 0 10 2 10 6 0 2 -6 9 -10 14 -6 5 3 9 2 8 -3 -1 -4 0
-10 1 -13 7 -19 7 -39 -1 -34 -9 5 -5 -38 7 -78 3 -9 0 -19 -5 -23 -7 -4 -9 1
-5 12 5 17 5 17 -6 0 -9 -13 -8 -21 5 -34 13 -12 14 -18 4 -24 -7 -4 -14 -15
-15 -24 -2 -12 3 -14 19 -10 12 4 17 3 12 -2 -6 -4 -10 -15 -10 -23 0 -8 -7
-21 -17 -28 -10 -7 -18 -19 -18 -25 0 -9 3 -8 8 1 7 9 13 7 28 -9 10 -13 13
-19 7 -15 -9 5 -12 -3 -10 -31 1 -21 6 -43 10 -50 4 -6 3 -14 -2 -18 -5 -3 -8
-15 -6 -26 3 -15 -1 -19 -14 -17 -11 2 -29 -6 -42 -17 -12 -11 -19 -14 -15 -7
5 8 1 11 -16 8 -13 -3 -23 -5 -23 -6 0 -1 -8 -3 -18 -5 -9 -2 -15 1 -11 6 3 5
10 6 16 3 7 -4 8 -2 4 4 -5 8 -13 9 -24 3 -11 -6 -21 -4 -30 5 -7 8 -9 14 -5
14 5 0 14 10 22 23 7 12 10 19 6 15 -5 -4 -14 -3 -22 4 -11 9 -11 14 4 30 16
18 16 19 -3 12 -17 -7 -18 -6 -4 11 14 17 13 18 -4 11 -19 -7 -19 -6 -1 14 18
19 18 20 -1 20 -16 0 -17 2 -4 10 8 5 11 10 6 10 -5 0 -3 6 3 13 6 8 7 17 3
21 -10 11 -9 30 3 38 6 5 6 8 -2 8 -7 0 -13 5 -13 11 0 5 4 7 10 4 6 -3 7 1 4
9 -3 9 -11 16 -18 17 -6 0 -2 4 9 9 11 5 14 9 6 9 -11 1 -11 4 -1 16 10 12 10
18 0 30 -10 12 -10 15 1 15 11 0 11 2 -1 10 -13 9 -13 10 0 10 9 0 11 3 5 8
-15 10 -13 45 2 55 8 5 11 12 8 17 -3 5 0 12 6 16 8 4 9 3 5 -4 -4 -7 -3 -12
3 -12 5 0 13 5 16 10 4 6 10 8 15 5 5 -3 11 -1 15 5 8 13 16 13 13 -1z m99
-94 c0 -8 -4 -12 -9 -9 -5 3 -6 10 -3 15 9 13 12 11 12 -6z m-1083 -96 c-3 -5
-10 -7 -15 -3 -5 3 -7 10 -3 15 3 5 10 7 15 3 5 -3 7 -10 3 -15z m1911 1 c3
-6 -1 -7 -9 -4 -18 7 -21 14 -7 14 6 0 13 -4 16 -10z m-568 -69 c-3 10 2 15
18 15 13 0 21 -4 19 -8 -3 -5 -10 -6 -15 -3 -15 10 -10 -2 8 -16 9 -8 14 -9
11 -4 -3 6 0 16 8 23 10 9 14 9 14 1 0 -8 4 -8 13 -1 8 7 17 6 30 -3 14 -10
15 -14 5 -18 -7 -3 -2 -6 12 -6 19 -1 22 -3 10 -10 -8 -6 -17 -8 -20 -6 -4 2
-7 -2 -7 -10 0 -11 4 -12 14 -3 7 6 17 7 21 3 4 -4 1 -10 -6 -12 -10 -4 -10
-9 3 -23 12 -14 13 -20 4 -26 -7 -4 -10 -3 -5 4 3 6 3 13 -2 16 -4 2 -9 -4 -9
-15 -1 -10 3 -19 9 -19 6 0 5 -7 -3 -17 -8 -9 -9 -14 -3 -10 6 3 11 0 11 -8 0
-8 -4 -12 -9 -9 -4 3 -8 0 -8 -5 0 -6 5 -11 11 -11 8 0 7 -5 -2 -16 -10 -13
-10 -17 2 -25 12 -7 12 -10 0 -18 -10 -6 -11 -13 -2 -29 13 -24 14 -35 3 -28
-12 7 -10 -38 2 -47 8 -6 7 -10 -1 -14 -7 -2 -13 -9 -13 -14 0 -6 4 -8 8 -5 4
2 8 -4 8 -14 0 -10 -4 -16 -8 -14 -4 3 -8 0 -8 -5 0 -6 5 -11 10 -11 6 0 10
-5 10 -11 0 -5 -4 -8 -8 -5 -4 2 -8 -4 -8 -15 0 -10 3 -19 6 -19 4 0 7 -7 7
-15 0 -8 -3 -15 -7 -15 -3 0 -6 -9 -7 -20 -1 -13 2 -18 10 -13 7 4 6 0 -2 -10
-7 -9 -10 -17 -5 -18 5 0 0 -4 -11 -9 -19 -8 -19 -9 3 -9 20 -1 21 -4 12 -21
-8 -14 -8 -20 0 -20 6 0 8 -5 5 -10 -4 -6 -12 -8 -18 -4 -7 3 -3 -2 7 -10 11
-9 14 -16 7 -16 -7 0 -9 -5 -5 -12 4 -7 3 -8 -5 -4 -6 4 -8 12 -5 18 4 7 2 8
-5 4 -12 -8 -8 -18 18 -51 15 -19 15 -19 -4 -5 -11 8 -23 20 -27 25 -5 6 -8 6
-8 -2 0 -6 6 -18 13 -25 19 -21 18 -34 -6 -54 -14 -12 -17 -13 -9 -3 6 9 8 20
4 24 -4 5 0 4 8 0 13 -8 13 -7 1 8 -17 22 -19 21 -17 -5 1 -15 -4 -22 -14 -20
-9 1 -5 -7 10 -19 23 -20 23 -21 3 -15 -23 7 -41 -8 -22 -20 8 -5 9 -3 4 6 -5
9 -4 11 4 6 15 -9 3 -29 -14 -22 -7 2 -22 -6 -34 -20 -11 -13 -17 -24 -12 -24
5 0 16 10 25 23 10 12 8 6 -3 -14 -12 -20 -18 -39 -14 -43 4 -4 -1 -4 -11 0
-14 5 -15 9 -4 15 10 7 9 9 -4 9 -21 0 -23 -11 -5 -29 10 -11 9 -12 -2 -6 -11
6 -13 4 -8 -8 8 -22 3 -21 -19 1 -16 15 -17 15 -12 0 4 -9 4 -19 0 -21 -4 -2
-2 -3 4 -1 6 1 11 -4 11 -11 0 -10 -7 -11 -25 -4 -23 9 -24 8 -11 -8 12 -15
12 -16 -4 -10 -11 4 -16 3 -12 -3 3 -6 1 -10 -5 -10 -7 0 -10 -6 -7 -13 4 -12
-7 -16 -55 -20 -9 -1 -14 -5 -11 -10 3 -5 11 -6 19 -3 20 8 17 2 -8 -20 -12
-10 -18 -14 -15 -8 4 7 1 14 -7 17 -8 3 -13 -1 -12 -11 1 -10 -7 -17 -19 -17
-11 0 -27 -4 -35 -10 -13 -7 -13 -6 -2 7 7 9 22 15 33 13 11 -2 17 0 14 5 -6
10 -24 8 -44 -4 -8 -5 -17 -3 -23 5 -6 10 -7 7 -3 -9 6 -22 5 -23 -17 -11 -21
11 -22 11 -9 -4 16 -20 1 -23 -18 -4 -11 10 -12 9 -6 -1 5 -10 2 -13 -11 -10
-11 2 -18 10 -16 18 3 11 0 11 -12 0 -18 -14 -22 -25 -6 -15 16 10 11 -1 -7
-16 -14 -12 -16 -12 -8 0 6 11 2 13 -18 9 -18 -3 -28 0 -32 11 -6 15 -7 15
-18 0 -7 -9 -18 -14 -26 -11 -11 4 -11 6 0 13 9 6 10 9 2 9 -6 0 -15 -4 -18
-10 -8 -13 -25 -13 -25 1 0 5 6 7 13 3 6 -4 9 -4 5 1 -4 4 -2 15 5 23 8 11 3
10 -17 -3 l-29 -19 7 22 c5 14 3 22 -4 22 -6 0 -8 -4 -5 -10 3 -5 1 -10 -4
-10 -6 0 -11 5 -11 10 0 15 -30 12 -30 -2 0 -7 -5 -5 -11 5 -6 9 -15 14 -21
11 -7 -4 -8 -2 -4 4 4 7 2 12 -4 12 -7 0 -10 6 -7 13 3 8 -1 14 -8 14 -7 0
-11 -6 -8 -13 2 -6 -1 -15 -8 -20 -7 -4 -10 -3 -5 4 3 6 -1 27 -11 47 l-17 36
-19 -23 c-18 -23 -18 -23 -3 8 16 33 17 33 -39 35 -16 1 -14 4 10 15 l30 15
-27 -6 c-21 -4 -28 -2 -28 10 0 9 5 13 10 10 6 -3 10 -1 10 5 0 7 -7 9 -16 6
-23 -9 -37 3 -24 19 10 11 8 13 -9 10 -20 -4 -20 -3 -5 23 12 20 12 22 1 10
-15 -19 -33 -25 -22 -9 3 5 -2 17 -11 25 -8 9 -12 16 -7 16 4 0 1 5 -7 11 -13
9 -12 10 3 5 9 -3 17 -1 17 4 0 6 -5 10 -11 10 -5 0 -7 6 -3 13 5 8 2 8 -9 -2
-15 -11 -17 -11 -17 1 0 8 3 18 7 22 10 10 12 56 1 50 -4 -3 -6 -10 -3 -15 3
-5 -1 -6 -10 -2 -12 4 -13 8 -4 13 6 5 9 17 6 29 -3 12 -1 19 3 16 5 -3 8 3 7
14 -1 14 -5 17 -13 10 -9 -7 -8 1 1 28 12 34 11 39 -3 45 -15 6 -15 7 1 7 14
1 16 5 8 18 -5 10 -5 26 0 40 5 14 4 25 -3 29 -7 5 -8 2 -3 -7 5 -8 4 -10 0
-6 -12 10 -15 38 -4 31 5 -3 9 7 9 21 0 18 -4 24 -12 19 -10 -6 -10 -4 -1 7
17 17 17 32 1 23 -10 -6 -10 -4 0 7 14 15 17 33 4 25 -5 -3 -9 1 -9 9 0 8 4
12 9 9 9 -6 5 32 -5 42 -10 11 -8 24 4 24 5 0 7 -5 3 -12 -4 -7 -3 -8 5 -4 8
6 9 12 2 20 -7 9 -7 16 2 25 6 7 8 12 2 11 -21 -5 -25 1 -15 20 9 16 8 20 -7
21 -16 0 -16 1 2 9 13 6 15 9 5 9 -13 1 -13 2 0 11 13 8 12 10 -3 10 -10 0
-15 5 -12 10 4 6 10 8 15 5 4 -3 10 2 13 10 4 10 1 12 -11 8 -15 -6 -15 -4 -4
10 8 9 11 21 7 27 -3 5 2 10 12 10 15 0 16 2 3 10 -17 11 -15 12 67 14 36 0
63 -3 64 -9 0 -5 3 -5 5 2 7 17 34 4 35 -16 0 -13 1 -14 7 -1 8 17 32 25 32
10 0 -5 -6 -10 -12 -11 -10 0 -10 -2 0 -6 6 -2 12 -9 12 -14 0 -6 -4 -7 -10
-4 -5 3 -10 1 -10 -4 0 -6 4 -11 9 -11 5 0 12 -7 15 -16 6 -15 4 -15 -10 -3
-16 13 -16 12 -4 -11 9 -17 10 -25 1 -28 -6 -2 -11 -8 -11 -13 0 -6 4 -8 8 -5
4 2 9 -7 10 -22 1 -14 -4 -29 -10 -34 -10 -6 -10 -8 1 -8 10 0 11 -3 2 -14 -9
-11 -9 -16 0 -22 8 -5 9 -3 4 6 -5 9 -4 11 3 6 8 -5 9 -13 2 -25 -6 -12 -5
-22 3 -31 9 -10 9 -11 0 -6 -6 3 -14 2 -18 -4 -3 -5 2 -10 12 -10 15 0 16 -2
3 -10 -9 -6 -11 -10 -3 -10 7 0 10 -7 7 -15 -4 -8 -11 -12 -18 -8 -8 5 -8 3 0
-8 15 -19 16 -79 1 -79 -8 0 -9 -3 -1 -8 12 -8 13 -70 1 -89 -5 -8 -4 -13 2
-13 6 0 11 -5 11 -11 0 -6 -7 -8 -17 -5 -13 5 -10 -1 7 -19 14 -15 19 -25 11
-23 -10 2 -15 -7 -16 -29 0 -18 3 -33 7 -33 4 0 8 -9 8 -20 0 -11 5 -20 11
-20 5 0 7 -5 4 -10 -4 -6 -10 -8 -15 -5 -5 3 -11 1 -15 -4 -3 -6 3 -8 15 -6
13 2 20 -1 20 -11 0 -8 5 -14 12 -14 6 0 8 -3 5 -6 -4 -4 -13 -1 -22 6 -8 7
-15 8 -15 2 0 -5 7 -13 16 -16 8 -3 12 -10 9 -16 -3 -5 0 -7 8 -4 8 3 18 0 23
-7 4 -7 3 -10 -4 -5 -6 4 -10 -1 -9 -13 0 -11 5 -17 11 -14 5 4 7 -1 3 -11 -4
-10 -1 -19 8 -22 8 -4 12 -11 8 -17 -4 -6 -1 -7 7 -2 10 6 9 11 -5 21 -16 12
-16 13 3 11 11 0 19 -4 17 -7 -5 -9 7 -23 32 -37 18 -10 22 -10 19 0 -1 6 -1
9 1 4 3 -4 9 -5 14 -1 14 8 11 -3 -7 -20 -8 -9 -11 -16 -6 -16 5 0 15 7 23 16
11 14 15 13 32 -8 13 -15 17 -17 13 -6 -3 10 0 20 6 24 7 4 8 3 4 -4 -4 -8 4
-10 25 -7 22 3 37 -1 47 -13 7 -9 11 -11 7 -4 -7 13 20 12 45 -2 12 -7 13 -6
3 5 -19 19 -16 34 4 18 15 -13 16 -11 10 10 -4 18 -3 21 6 12 13 -13 31 -15
22 -2 -3 6 3 8 14 6 15 -3 18 1 13 17 -3 13 -1 19 5 15 6 -4 14 0 17 9 4 10
13 13 28 9 18 -5 20 -4 8 4 -8 6 -11 11 -6 11 6 0 1 7 -10 15 -18 14 -17 14 9
5 23 -8 27 -7 27 9 0 10 10 23 23 30 20 10 20 11 1 6 -14 -4 -21 0 -21 9 0 8
6 12 15 8 9 -3 13 -1 9 5 -4 6 -3 13 3 15 5 1 11 15 12 31 2 18 7 26 16 22 7
-2 10 0 7 5 -12 19 -12 81 0 76 6 -2 12 2 12 10 0 7 -4 11 -8 9 -4 -3 -10 2
-13 11 -4 9 -2 13 5 8 7 -4 10 -1 7 7 -3 8 -12 13 -19 11 -9 -1 -7 3 4 12 15
11 16 18 8 35 -8 14 -8 22 1 27 7 5 8 3 3 -6 -5 -8 -4 -11 2 -7 15 9 9 73 -6
69 -7 -1 -9 2 -6 8 4 6 14 9 24 6 14 -5 13 -4 -1 8 -24 18 -23 32 4 50 25 18
17 22 -11 7 -13 -7 -18 -6 -18 4 0 8 5 12 10 8 5 -3 6 4 2 17 -5 17 -4 21 6
16 8 -4 5 0 -6 10 -18 15 -18 16 -2 10 13 -4 17 -2 14 6 -2 7 -11 12 -18 10
-11 -3 -11 -1 -2 9 6 6 9 18 6 27 -5 11 -2 13 8 8 8 -4 5 0 -6 10 -18 15 -18
16 -2 10 13 -4 17 -2 14 6 -2 7 -11 12 -18 10 -11 -3 -11 -1 -2 9 6 6 9 18 6
27 -4 9 -2 13 4 9 7 -5 9 7 7 34 -3 28 -1 38 7 33 6 -3 3 6 -6 22 -12 20 -12
23 -2 11 15 -18 16 -18 28 1 12 19 14 19 27 4 11 -14 13 -14 9 -1z m-262 -51
c3 -6 -1 -7 -9 -4 -18 7 -21 14 -7 14 6 0 13 -4 16 -10z m-1131 -18 c3 -5 -1
-9 -9 -9 -8 0 -12 4 -9 9 3 4 7 8 9 8 2 0 6 -4 9 -8z m1326 -16 c0 -2 -7 -7
-16 -10 -8 -3 -12 -2 -9 4 6 10 25 14 25 6z m712 -113 c-6 -3 -9 -10 -6 -15 4
-7 2 -8 -5 -4 -8 6 -9 12 -2 20 6 7 9 15 7 18 -1 3 2 1 8 -4 8 -8 7 -12 -2
-15z m-1087 -1 c-3 -3 -11 0 -18 7 -9 10 -8 11 6 5 10 -3 15 -9 12 -12z m157
-46 c7 4 8 2 4 -4 -4 -6 -13 -9 -21 -6 -8 4 -12 11 -8 17 5 8 8 7 11 -1 2 -7
9 -9 14 -6z m216 -181 c-3 -3 -9 2 -12 12 -6 14 -5 15 5 6 7 -7 10 -15 7 -18z
m713 -128 c-6 -8 -8 -16 -5 -19 3 -3 1 -9 -4 -12 -6 -3 -9 0 -8 6 2 16 15 38
23 38 3 0 0 -6 -6 -13z m3 -50 c-3 -8 -12 -14 -21 -14 -13 0 -13 2 3 14 10 7
19 13 21 13 1 0 0 -6 -3 -13z m-1499 -95 c-3 -3 -11 0 -18 7 -9 10 -8 11 6 5
10 -3 15 -9 12 -12z m740 8 c3 -5 1 -10 -4 -10 -6 0 -11 5 -11 10 0 6 2 10 4
10 3 0 8 -4 11 -10z m-1275 -59 c0 -6 -4 -12 -8 -15 -5 -3 -9 1 -9 9 0 8 4 15
9 15 4 0 8 -4 8 -9z m1077 -147 c0 -7 -6 -10 -14 -7 -7 3 -13 8 -13 12 0 4 6
8 13 8 8 0 14 -6 14 -13z m-1012 -34 c3 -5 1 -10 -4 -10 -6 0 -11 5 -11 10 0
6 2 10 4 10 3 0 8 -4 11 -10z m610 -10 c-3 -5 -12 -10 -18 -10 -7 0 -6 4 3 10
19 12 23 12 15 0z m1219 -49 c3 -5 -1 -14 -8 -20 -10 -9 -16 -9 -21 -1 -4 6
-1 9 7 8 7 -2 12 3 11 10 -3 14 3 16 11 3z m-937 -123 c-3 -8 -6 -5 -6 6 -1
11 2 17 5 13 3 -3 4 -12 1 -19z m108 -6 c-3 -3 -11 0 -18 7 -9 10 -8 11 6 5
10 -3 15 -9 12 -12z m-875 -17 c0 -8 -2 -15 -4 -15 -2 0 -6 7 -10 15 -3 8 -1
15 4 15 6 0 10 -7 10 -15z m1484 -146 c-3 -5 -10 -7 -15 -3 -5 3 -7 10 -3 15
3 5 10 7 15 3 5 -3 7 -10 3 -15z m-1329 -9 c3 -5 1 -10 -4 -10 -6 0 -11 5 -11
10 0 6 2 10 4 10 3 0 8 -4 11 -10z m1105 -146 c0 -8 -19 -13 -24 -6 -3 5 1 9
9 9 8 0 15 -2 15 -3z m-40 -14 c0 -5 -2 -10 -4 -10 -3 0 -8 5 -11 10 -3 6 -1
10 4 10 6 0 11 -4 11 -10z"/>
<path d="M1230 1920 c-17 -13 -20 -19 -10 -25 9 -5 11 -4 6 3 -4 7 -1 12 8 12
9 0 16 6 16 13 0 9 2 9 9 -1 7 -11 9 -11 14 0 7 20 -16 18 -43 -2z"/>
<path d="M1314 1919 c-3 -5 0 -8 8 -7 7 2 12 -3 11 -9 -2 -7 2 -13 7 -13 6 0
10 5 10 11 0 5 6 7 13 3 9 -5 9 -4 0 6 -16 17 -41 21 -49 9z"/>
<path d="M1341 1834 c0 -11 3 -14 6 -6 3 7 2 16 -1 19 -3 4 -6 -2 -5 -13z"/>
<path d="M1350 1605 c-7 -9 -11 -17 -9 -20 3 -2 10 5 17 15 14 24 10 26 -8 5z"/>
<path d="M1353 1550 c-1 -11 3 -22 8 -25 5 -4 6 -11 3 -17 -4 -7 -2 -8 5 -4 9
6 9 11 1 21 -6 7 -8 20 -4 29 3 9 2 16 -3 16 -5 0 -9 -9 -10 -20z"/>
<path d="M830 1680 c0 -5 5 -10 11 -10 5 0 7 5 4 10 -3 6 -8 10 -11 10 -2 0
-4 -4 -4 -10z"/>
<path d="M1616 1675 c-9 -26 -7 -32 5 -12 6 10 9 21 6 23 -2 3 -7 -2 -11 -11z"/>
<path d="M956 1647 c3 -10 9 -15 12 -12 3 3 0 11 -7 18 -10 9 -11 8 -5 -6z"/>
<path d="M970 1600 c0 -5 5 -10 11 -10 5 0 7 5 4 10 -3 6 -8 10 -11 10 -2 0
-4 -4 -4 -10z"/>
<path d="M960 1560 c-9 -6 -10 -10 -3 -10 6 0 15 5 18 10 8 12 4 12 -15 0z"/>
<path d="M1590 1560 c0 -5 5 -10 11 -10 5 0 7 5 4 10 -3 6 -8 10 -11 10 -2 0
-4 -4 -4 -10z"/>
<path d="M1590 1219 c0 -5 5 -7 10 -4 6 3 10 8 10 11 0 2 -4 4 -10 4 -5 0 -10
-5 -10 -11z"/>
<path d="M1565 1009 c-4 -6 -5 -12 -2 -15 2 -3 7 2 10 11 7 17 1 20 -8 4z"/>
<path d="M835 921 c-3 -5 -2 -12 3 -15 5 -3 9 1 9 9 0 17 -3 19 -12 6z"/>
<path d="M1390 780 c0 -5 7 -7 15 -4 8 4 15 8 15 10 0 2 -7 4 -15 4 -8 0 -15
-4 -15 -10z"/>
<path d="M1246 771 c-3 -4 4 -7 14 -6 27 2 33 10 10 12 -11 1 -22 -2 -24 -6z"/>
<path d="M996 727 c3 -10 9 -15 12 -12 3 3 0 11 -7 18 -10 9 -11 8 -5 -6z"/>
<path d="M1055 660 c3 -5 8 -10 11 -10 2 0 4 5 4 10 0 6 -5 10 -11 10 -5 0 -7
-4 -4 -10z"/>
<path d="M1546 2398 c3 -5 10 -6 15 -3 13 9 11 12 -6 12 -8 0 -12 -4 -9 -9z"/>
<path d="M815 2360 c-3 -5 -1 -10 4 -10 6 0 11 5 11 10 0 6 -2 10 -4 10 -3 0
-8 -4 -11 -10z"/>
<path d="M1851 2251 c-8 -5 -9 -11 -3 -15 5 -3 12 1 16 9 6 17 6 18 -13 6z"/>
<path d="M2000 2112 c9 -19 30 -23 30 -5 0 4 -3 3 -7 0 -3 -4 -12 1 -20 11
-13 15 -13 15 -3 -6z"/>
<path d="M242 1694 c-7 -8 -8 -14 -3 -14 10 0 25 19 20 25 -2 1 -10 -3 -17
-11z"/>
<path d="M2255 1660 c-3 -5 -1 -10 4 -10 6 0 11 5 11 10 0 6 -2 10 -4 10 -3 0
-8 -4 -11 -10z"/>
<path d="M2182 750 c-7 -11 -9 -20 -4 -20 4 0 13 9 20 20 7 11 9 20 4 20 -4 0
-13 -9 -20 -20z"/>
<path d="M2120 640 c-9 -6 -10 -10 -3 -10 6 0 15 5 18 10 8 12 4 12 -15 0z"/>
<path d="M634 343 c2 -10 6 -17 10 -16 15 3 16 11 2 22 -12 10 -14 9 -12 -6z"/>
<path d="M707 300 c3 -11 9 -17 15 -14 5 3 4 12 -3 20 -16 19 -18 18 -12 -6z"/>
<path d="M822 231 c-11 -7 -10 -9 3 -14 9 -4 14 -3 10 2 -3 5 1 12 7 14 7 3 9
6 3 6 -5 0 -16 -3 -23 -8z"/>
</g>
</svg>
